<svg aria-hidden="true" style="position: absolute; width: 0; height: 0; overflow: hidden;" version="1.1" xmlns="http://www.w3.org/2000/svg" xmlns:xlink="http://www.w3.org/1999/xlink">
<defs>
<symbol id="006" viewBox="0 0 32 32">
<path fill="none" opacity="0.2" stroke="#000" style="stroke: var(--color1, #000)" stroke-linejoin="miter" stroke-linecap="butt" stroke-miterlimit="4" stroke-width="0.5" d="M31.75 16c0 8.698-7.052 15.75-15.75 15.75s-15.75-7.052-15.75-15.75c0-8.698 7.051-15.75 15.75-15.75s15.75 7.051 15.75 15.75z"></path>
<path fill="none" stroke="#000" style="stroke: var(--color1, #000)" stroke-linejoin="miter" stroke-linecap="round" stroke-miterlimit="4" stroke-width="0.5" d="M11.579 15.164c-0.204 1.076-0.009 2.189 0.549 3.131l-0.378 1.705 1.953-0.13c0.942 0.558 2.055 0.754 3.131 0.549s2.040-0.794 2.712-1.659c0.672-0.865 1.004-1.945 0.936-3.038s-0.534-2.123-1.308-2.897c-0.774-0.774-1.805-1.239-2.898-1.308s-2.173 0.264-3.038 0.936c-0.865 0.672-1.455 1.636-1.659 2.711z"></path>
<path d="M16.125 16.25c0.207 0 0.375-0.168 0.375-0.375s-0.168-0.375-0.375-0.375c-0.207 0-0.375 0.168-0.375 0.375s0.168 0.375 0.375 0.375z"></path>
<path d="M13.875 16.25c0.207 0 0.375-0.168 0.375-0.375s-0.168-0.375-0.375-0.375c-0.207 0-0.375 0.168-0.375 0.375s0.168 0.375 0.375 0.375z"></path>
<path d="M18.375 16.25c0.207 0 0.375-0.168 0.375-0.375s-0.168-0.375-0.375-0.375c-0.207 0-0.375 0.168-0.375 0.375s0.168 0.375 0.375 0.375z"></path>
</symbol>
<symbol id="007" viewBox="0 0 32 32">
<path fill="none" opacity="0.2" stroke="#000" style="stroke: var(--color1, #000)" stroke-linejoin="miter" stroke-linecap="butt" stroke-miterlimit="4" stroke-width="0.5" d="M31.75 16c0 8.698-7.052 15.75-15.75 15.75s-15.75-7.052-15.75-15.75c0-8.698 7.051-15.75 15.75-15.75s15.75 7.051 15.75 15.75z"></path>
<path fill="none" stroke="#000" style="stroke: var(--color1, #000)" stroke-linejoin="round" stroke-linecap="round" stroke-miterlimit="4" stroke-width="0.5" d="M11.5 13.375h2.433c0.060-0 0.119 0.014 0.172 0.042s0.099 0.068 0.132 0.118l3.525 4.931c0.034 0.049 0.079 0.090 0.132 0.118s0.112 0.042 0.172 0.042h2.808"></path>
<path fill="none" stroke="#000" style="stroke: var(--color1, #000)" stroke-linejoin="miter" stroke-linecap="round" stroke-miterlimit="4" stroke-width="0.5" d="M19.75 12.25l1.125 1.125-1.125 1.125"></path>
<path fill="none" stroke="#000" style="stroke: var(--color1, #000)" stroke-linejoin="miter" stroke-linecap="round" stroke-miterlimit="4" stroke-width="0.5" d="M19.75 17.5l1.125 1.125-1.125 1.125"></path>
<path fill="none" stroke="#000" style="stroke: var(--color1, #000)" stroke-linejoin="round" stroke-linecap="round" stroke-miterlimit="4" stroke-width="0.5" d="M16.923 14.711l0.839-1.177c0.034-0.050 0.079-0.090 0.132-0.118s0.112-0.042 0.172-0.042h2.808"></path>
<path fill="none" stroke="#000" style="stroke: var(--color1, #000)" stroke-linejoin="round" stroke-linecap="round" stroke-miterlimit="4" stroke-width="0.5" d="M11.5 18.625h2.433c0.060 0 0.119-0.014 0.172-0.042s0.099-0.068 0.132-0.118l0.839-1.177"></path>
</symbol>
<symbol id="008" viewBox="0 0 32 32">
<path fill="none" opacity="0.2" stroke="#000" style="stroke: var(--color1, #000)" stroke-linejoin="miter" stroke-linecap="butt" stroke-miterlimit="4" stroke-width="0.5" d="M31.75 16c0 8.698-7.052 15.75-15.75 15.75s-15.75-7.052-15.75-15.75c0-8.698 7.051-15.75 15.75-15.75s15.75 7.051 15.75 15.75z"></path>
<path fill="none" stroke="#000" style="stroke: var(--color1, #000)" stroke-linejoin="round" stroke-linecap="round" stroke-miterlimit="4" stroke-width="0.5" d="M17 18h-5"></path>
<path fill="none" stroke="#000" style="stroke: var(--color1, #000)" stroke-linejoin="round" stroke-linecap="round" stroke-miterlimit="4" stroke-width="0.5" d="M15 14h5"></path>
<path fill="none" stroke="#000" style="stroke: var(--color1, #000)" stroke-linejoin="round" stroke-linecap="round" stroke-miterlimit="4" stroke-width="0.5" d="M20 18h-1"></path>
<path fill="none" stroke="#000" style="stroke: var(--color1, #000)" stroke-linejoin="round" stroke-linecap="round" stroke-miterlimit="4" stroke-width="0.5" d="M12 14h1"></path>
<path fill="none" stroke="#000" style="stroke: var(--color1, #000)" stroke-linejoin="round" stroke-linecap="round" stroke-miterlimit="4" stroke-width="0.5" d="M18 19c0.552 0 1-0.448 1-1s-0.448-1-1-1c-0.552 0-1 0.448-1 1s0.448 1 1 1z"></path>
<path fill="none" stroke="#000" style="stroke: var(--color1, #000)" stroke-linejoin="round" stroke-linecap="round" stroke-miterlimit="4" stroke-width="0.5" d="M14 13c-0.552 0-1 0.448-1 1s0.448 1 1 1c0.552 0 1-0.448 1-1s-0.448-1-1-1z"></path>
</symbol>
<symbol id="arrow-left" viewBox="0 0 32 32">
<path fill="none" opacity="0.3" stroke="#fff" style="stroke: var(--color2, #fff)" stroke-linejoin="miter" stroke-linecap="butt" stroke-miterlimit="4" stroke-width="0.8" d="M16 31.6c-8.616 0-15.6-6.984-15.6-15.6s6.984-15.6 15.6-15.6c8.616 0 15.6 6.984 15.6 15.6s-6.984 15.6-15.6 15.6z"></path>
<path fill="none" opacity="0.3" stroke="#fff" style="stroke: var(--color2, #fff)" stroke-linejoin="miter" stroke-linecap="butt" stroke-miterlimit="4" stroke-width="0.8" d="M16.8 12.8l-3.2 3.2 3.2 3.2"></path>
</symbol>
<symbol id="arrow-right" viewBox="0 0 32 32">
<path fill="none" stroke="#fff" style="stroke: var(--color2, #fff)" stroke-linejoin="miter" stroke-linecap="butt" stroke-miterlimit="4" stroke-width="0.8" d="M16 0.4c8.616 0 15.6 6.984 15.6 15.6s-6.984 15.6-15.6 15.6c-8.616 0-15.6-6.984-15.6-15.6s6.984-15.6 15.6-15.6z"></path>
<path fill="none" stroke="#fff" style="stroke: var(--color2, #fff)" stroke-linejoin="miter" stroke-linecap="butt" stroke-miterlimit="4" stroke-width="0.8" d="M15.2 19.2l3.2-3.2-3.2-3.2"></path>
</symbol>
<symbol id="001" viewBox="0 0 32 32">
<path fill="none" opacity="0.2" stroke="#000" style="stroke: var(--color1, #000)" stroke-linejoin="miter" stroke-linecap="butt" stroke-miterlimit="4" stroke-width="0.5" d="M31.75 16c0 8.698-7.052 15.75-15.75 15.75s-15.75-7.052-15.75-15.75c0-8.698 7.051-15.75 15.75-15.75s15.75 7.051 15.75 15.75z"></path>
<path fill="none" stroke="#000" style="stroke: var(--color1, #000)" stroke-linejoin="miter" stroke-linecap="butt" stroke-miterlimit="10" stroke-width="0.5" d="M16 20.5c2.485 0 4.5-2.015 4.5-4.5s-2.015-4.5-4.5-4.5c-2.485 0-4.5 2.015-4.5 4.5s2.015 4.5 4.5 4.5z"></path>
<path fill="none" stroke="#000" style="stroke: var(--color1, #000)" stroke-linejoin="miter" stroke-linecap="round" stroke-miterlimit="4" stroke-width="0.5" d="M16 14v2h2"></path>
</symbol>
<symbol id="002" viewBox="0 0 32 32">
<path fill="none" opacity="0.2" stroke="#000" style="stroke: var(--color1, #000)" stroke-linejoin="miter" stroke-linecap="butt" stroke-miterlimit="4" stroke-width="0.5" d="M31.75 16c0 8.698-7.052 15.75-15.75 15.75s-15.75-7.052-15.75-15.75c0-8.698 7.051-15.75 15.75-15.75s15.75 7.051 15.75 15.75z"></path>
<path fill="none" stroke="#000" style="stroke: var(--color1, #000)" stroke-linejoin="round" stroke-linecap="round" stroke-miterlimit="4" stroke-width="0.5" d="M14.875 16h5.25"></path>
<path fill="none" stroke="#000" style="stroke: var(--color1, #000)" stroke-linejoin="round" stroke-linecap="round" stroke-miterlimit="4" stroke-width="0.5" d="M14.875 13h5.25"></path>
<path fill="none" stroke="#000" style="stroke: var(--color1, #000)" stroke-linejoin="round" stroke-linecap="round" stroke-miterlimit="4" stroke-width="0.5" d="M14.875 19h5.25"></path>
<path fill="none" stroke="#000" style="stroke: var(--color1, #000)" stroke-linejoin="miter" stroke-linecap="round" stroke-miterlimit="4" stroke-width="0.5" d="M11.875 12.813l0.75-0.375v2.625"></path>
<path fill="none" stroke="#000" style="stroke: var(--color1, #000)" stroke-linejoin="miter" stroke-linecap="round" stroke-miterlimit="4" stroke-width="0.5" d="M11.927 17.153c0.035-0.086 0.087-0.163 0.153-0.227s0.146-0.113 0.232-0.145c0.087-0.031 0.179-0.044 0.271-0.037s0.182 0.033 0.263 0.077c0.081 0.044 0.152 0.104 0.209 0.177s0.097 0.157 0.118 0.247c0.022 0.090 0.024 0.183 0.007 0.274s-0.053 0.177-0.105 0.253l-1.2 1.603h1.313"></path>
</symbol>
<symbol id="003" viewBox="0 0 32 32">
<path fill="none" opacity="0.2" stroke="#000" style="stroke: var(--color1, #000)" stroke-linejoin="miter" stroke-linecap="butt" stroke-miterlimit="4" stroke-width="0.5" d="M31.75 16c0 8.698-7.052 15.75-15.75 15.75s-15.75-7.052-15.75-15.75c0-8.698 7.051-15.75 15.75-15.75s15.75 7.051 15.75 15.75z"></path>
<path fill="none" stroke="#000" style="stroke: var(--color1, #000)" stroke-linejoin="miter" stroke-linecap="round" stroke-miterlimit="4" stroke-width="0.5" d="M15.264 11.925l-3.648 6.249c-0.075 0.134-0.115 0.285-0.115 0.439s0.039 0.306 0.113 0.44c0.074 0.134 0.182 0.246 0.312 0.324s0.277 0.12 0.427 0.122h7.296c0.15-0.002 0.298-0.044 0.427-0.122s0.237-0.19 0.311-0.324c0.075-0.134 0.113-0.286 0.113-0.44s-0.040-0.306-0.115-0.439l-3.648-6.249c-0.077-0.13-0.185-0.237-0.314-0.312s-0.275-0.114-0.423-0.114-0.294 0.039-0.423 0.114c-0.129 0.075-0.237 0.182-0.314 0.312v0z"></path>
<path fill="none" stroke="#000" style="stroke: var(--color1, #000)" stroke-linejoin="round" stroke-linecap="round" stroke-miterlimit="4" stroke-width="0.5" d="M16.1 14v2"></path>
<path d="M16.125 17.75c0.207 0 0.375-0.168 0.375-0.375s-0.168-0.375-0.375-0.375c-0.207 0-0.375 0.168-0.375 0.375s0.168 0.375 0.375 0.375z"></path>
</symbol>
<symbol id="004" viewBox="0 0 32 32">
<path fill="none" opacity="0.2" stroke="#000" style="stroke: var(--color1, #000)" stroke-linejoin="miter" stroke-linecap="butt" stroke-miterlimit="4" stroke-width="0.5" d="M31.75 16c0 8.698-7.052 15.75-15.75 15.75s-15.75-7.052-15.75-15.75c0-8.698 7.051-15.75 15.75-15.75s15.75 7.051 15.75 15.75z"></path>
<path fill="none" stroke="#000" style="stroke: var(--color1, #000)" stroke-linejoin="miter" stroke-linecap="butt" stroke-miterlimit="10" stroke-width="0.5" d="M16 20.5c2.485 0 4.5-2.015 4.5-4.5s-2.015-4.5-4.5-4.5c-2.485 0-4.5 2.015-4.5 4.5s2.015 4.5 4.5 4.5z"></path>
<path fill="none" stroke="#000" style="stroke: var(--color1, #000)" stroke-linejoin="round" stroke-linecap="round" stroke-miterlimit="4" stroke-width="0.5" d="M11.5 16h9"></path>
<path fill="none" stroke="#000" style="stroke: var(--color1, #000)" stroke-linejoin="miter" stroke-linecap="butt" stroke-miterlimit="10" stroke-width="0.5" d="M16 20.377c1.036 0 1.875-1.96 1.875-4.378s-0.839-4.378-1.875-4.378-1.875 1.96-1.875 4.378c0 2.418 0.839 4.378 1.875 4.378z"></path>
</symbol>
<symbol id="005" viewBox="0 0 32 32">
<path fill="none" opacity="0.2" stroke="#000" style="stroke: var(--color1, #000)" stroke-linejoin="miter" stroke-linecap="butt" stroke-miterlimit="4" stroke-width="0.5" d="M31.75 16c0 8.698-7.052 15.75-15.75 15.75s-15.75-7.052-15.75-15.75c0-8.698 7.051-15.75 15.75-15.75s15.75 7.051 15.75 15.75z"></path>
<path fill="none" stroke="#000" style="stroke: var(--color1, #000)" stroke-linejoin="round" stroke-linecap="round" stroke-miterlimit="4" stroke-width="0.5" d="M20.5 15.589v0.414c-0.001 0.97-0.315 1.915-0.896 2.692s-1.398 1.346-2.328 1.621c-0.931 0.275-1.925 0.242-2.835-0.094s-1.687-0.958-2.216-1.772c-0.528-0.814-0.779-1.777-0.715-2.745s0.439-1.89 1.069-2.628c0.63-0.738 1.482-1.252 2.429-1.466s1.937-0.116 2.823 0.279"></path>
<path fill="none" stroke="#000" style="stroke: var(--color1, #000)" stroke-linejoin="miter" stroke-linecap="round" stroke-miterlimit="4" stroke-width="0.5" d="M19.5 13.5l-3.334 3-1.166-1.245"></path>
</symbol>
</defs>
</svg>
