<svg width="64" height="64" viewBox="0 0 64 64" fill="none" xmlns="http://www.w3.org/2000/svg">
<circle opacity="0.2" cx="32" cy="32" r="31.5" stroke="black"/>
<path d="M30.527 23.8509L23.2309 36.3485C23.0804 36.6158 23.0008 36.9188 23 37.2275C22.9992 37.5361 23.0771 37.8396 23.2261 38.1078C23.375 38.3759 23.5898 38.5994 23.8491 38.7559C24.1084 38.9125 24.4031 38.9966 24.7039 39H39.2961C39.5969 38.9966 39.8916 38.9125 40.1509 38.7559C40.4102 38.5994 40.625 38.3759 40.7739 38.1078C40.9229 37.8396 41.0008 37.5361 41 37.2275C40.9992 36.9188 40.9196 36.6158 40.7691 36.3485L33.473 23.8509C33.3194 23.5912 33.1032 23.3764 32.8452 23.2273C32.5872 23.0783 32.2961 23 32 23C31.7039 23 31.4128 23.0783 31.1548 23.2273C30.8968 23.3764 30.6806 23.5912 30.527 23.8509V23.8509Z" stroke="black" stroke-linecap="round"/>
<path d="M32.2 28V32" stroke="black" stroke-linecap="round" stroke-linejoin="round"/>
<path d="M32.25 35.5C32.6642 35.5 33 35.1642 33 34.75C33 34.3358 32.6642 34 32.25 34C31.8358 34 31.5 34.3358 31.5 34.75C31.5 35.1642 31.8358 35.5 32.25 35.5Z" fill="black"/>
</svg>
