<svg width="64" height="64" viewBox="0 0 64 64" fill="none" xmlns="http://www.w3.org/2000/svg">
<circle opacity="0.2" cx="32" cy="32" r="31.5" stroke="black"/>
<path d="M41 31.1771V32.0051C40.9989 33.9459 40.3704 35.8344 39.2084 37.3888C38.0463 38.9432 36.413 40.0804 34.5518 40.6307C32.6907 41.1809 30.7015 41.1149 28.881 40.4423C27.0605 39.7697 25.5062 38.5266 24.4499 36.8985C23.3935 35.2704 22.8918 33.3444 23.0195 31.4078C23.1472 29.4713 23.8975 27.6278 25.1585 26.1525C26.4194 24.6772 28.1235 23.649 30.0166 23.2213C31.9096 22.7936 33.8902 22.9893 35.663 23.7792" stroke="black" stroke-linecap="round" stroke-linejoin="round"/>
<path d="M39 27L32.332 33L30 30.5102" stroke="black" stroke-linecap="round"/>
</svg>
