<svg width="64" height="64" viewBox="0 0 64 64" fill="none" xmlns="http://www.w3.org/2000/svg">
<circle opacity="0.2" cx="32" cy="32" r="31.5" stroke="black"/>
<path d="M23.1578 30.328C22.749 32.4796 23.1396 34.7064 24.2563 36.5904L23.5 40L27.4063 39.7404C29.2902 40.8571 31.5171 41.2477 33.6686 40.8389C35.8202 40.4301 37.7486 39.25 39.0917 37.5201C40.4349 35.7903 41.1004 33.6297 40.9634 31.4439C40.8264 29.2581 39.8963 27.1975 38.3477 25.6489C36.7991 24.1003 34.7385 23.1702 32.5527 23.0332C30.367 22.8963 28.2064 23.5618 26.4765 24.905C24.7467 26.2481 23.5666 28.1765 23.1578 30.328Z" stroke="black" stroke-linecap="round"/>
<path d="M32.25 32.5C32.6642 32.5 33 32.1642 33 31.75C33 31.3358 32.6642 31 32.25 31C31.8358 31 31.5 31.3358 31.5 31.75C31.5 32.1642 31.8358 32.5 32.25 32.5Z" fill="black"/>
<path d="M27.75 32.5C28.1642 32.5 28.5 32.1642 28.5 31.75C28.5 31.3358 28.1642 31 27.75 31C27.3358 31 27 31.3358 27 31.75C27 32.1642 27.3358 32.5 27.75 32.5Z" fill="black"/>
<path d="M36.75 32.5C37.1642 32.5 37.5 32.1642 37.5 31.75C37.5 31.3358 37.1642 31 36.75 31C36.3358 31 36 31.3358 36 31.75C36 32.1642 36.3358 32.5 36.75 32.5Z" fill="black"/>
</svg>
