<svg width="64" height="64" viewBox="0 0 64 64" fill="none" xmlns="http://www.w3.org/2000/svg">
<circle opacity="0.2" cx="32" cy="32" r="31.5" stroke="black"/>
<path d="M33.9995 36H23.9995" stroke="black" stroke-linecap="round" stroke-linejoin="round"/>
<path d="M29.9995 28L39.9995 28" stroke="black" stroke-linecap="round" stroke-linejoin="round"/>
<path d="M39.9995 36L37.9995 36" stroke="black" stroke-linecap="round" stroke-linejoin="round"/>
<path d="M23.9995 28L25.9995 28" stroke="black" stroke-linecap="round" stroke-linejoin="round"/>
<path d="M35.9995 38C37.1041 38 37.9995 37.1046 37.9995 36C37.9995 34.8954 37.1041 34 35.9995 34C34.8949 34 33.9995 34.8954 33.9995 36C33.9995 37.1046 34.8949 38 35.9995 38Z" stroke="black" stroke-linecap="round" stroke-linejoin="round"/>
<path d="M27.9995 26C26.8949 26 25.9995 26.8954 25.9995 28C25.9995 29.1046 26.8949 30 27.9995 30C29.1041 30 29.9995 29.1046 29.9995 28C29.9995 26.8954 29.1041 26 27.9995 26Z" stroke="black" stroke-linecap="round" stroke-linejoin="round"/>
</svg>
